<svg xmlns="http://www.w3.org/2000/svg" version="1.1"
  xmlns:xlink="http://www.w3.org/1999/xlink" width="512" height="512" x="0" y="0" viewBox="0 0 682.667 682.667" style="enable-background:new 0 0 512 512" xml:space="preserve" class="">
  <g>
    <defs>
      <clipPath id="a" clipPathUnits="userSpaceOnUse">
        <path d="M0 512h512V0H0Z" fill="#000000" opacity="1" data-original="#000000"></path>
      </clipPath>
    </defs>
    <g clip-path="url(#a)" transform="matrix(1.33333 0 0 -1.33333 0 682.667)">
      <path d="M0 0v-237.64l-11.59-5h-416.96l-11.59 5V0c0 6.4 5.19 11.59 11.59 11.59h416.96C-5.19 11.59 0 6.4 0 0" style="fill-opacity:1;fill-rule:nonzero;stroke:none" transform="translate(476.07 376.02)" fill="#d4f2f6" data-original="#d4f2f6"></path>
      <path d="M0 0c0-41.77-33.98-75.75-75.75-75.75S-151.51-41.77-151.51 0c0 3.89.3 7.71.86 11.45H-.86C-.29 7.71 0 3.89 0 0" style="fill-opacity:1;fill-rule:nonzero;stroke:none" transform="translate(457.27 376.16)" fill="#a8e7ef" data-original="#a8e7ef"></path>
      <path d="M0 0v-70.76c0-21.28-7.03-58.06-26.82-91.7-24.61-41.85-61.89-67.76-107.81-74.95a30.378 30.378 0 0 0-9.34 0c-45.91 7.19-83.19 33.1-107.8 74.95-19.78 33.64-26.81 70.42-26.81 91.7V0Z" style="fill-opacity:1;fill-rule:nonzero;stroke:none" transform="translate(395.29 387.61)" fill="#a8e7ef" data-original="#a8e7ef"></path>
      <path d="M0 0v-237.64h-35.9V0c0 6.4-5.18 11.59-11.58 11.59h35.89C-5.19 11.59 0 6.4 0 0" style="fill-opacity:1;fill-rule:nonzero;stroke:none" transform="translate(476.07 376.02)" fill="#a8e7ef" data-original="#a8e7ef"></path>
      <path d="M0 0v-32.98c0-6.4-5.19-11.59-11.59-11.59h-416.96c-6.4 0-11.59 5.19-11.59 11.59V0z" style="fill-opacity:1;fill-rule:nonzero;stroke:none" transform="translate(476.07 138.38)" fill="#1785f8" data-original="#1785f8"></path>
      <path d="M0 0v-32.98c0-6.4-5.19-11.59-11.59-11.59h-35.89c6.4 0 11.58 5.19 11.58 11.59V0z" style="fill-opacity:1;fill-rule:nonzero;stroke:none" transform="translate(476.07 138.38)" fill="#1576f7" data-original="#1576f7"></path>
      <path d="M0 0h-440.13" style="stroke-width:15;stroke-linecap:round;stroke-linejoin:round;stroke-miterlimit:10;stroke-dasharray:none;stroke-opacity:1" transform="translate(476.065 138.38)" fill="none" stroke="#000000" stroke-width="15" stroke-linecap="round" stroke-linejoin="round" stroke-miterlimit="10" stroke-dasharray="none" stroke-opacity="" data-original="#000000" class=""></path>
      <path d="M0 0h-23.49c-6.396 0-11.582-5.186-11.582-11.582V-282.21c0-6.397 5.186-11.583 11.582-11.583h416.966c6.396 0 11.582 5.186 11.582 11.583v270.628C405.058-5.186 399.872 0 393.476 0H33.486" style="stroke-width:15;stroke-linecap:round;stroke-linejoin:round;stroke-miterlimit:10;stroke-dasharray:none;stroke-opacity:1" transform="translate(71.007 387.607)" fill="none" stroke="#000000" stroke-width="15" stroke-linecap="round" stroke-linejoin="round" stroke-miterlimit="10" stroke-dasharray="none" stroke-opacity="" data-original="#000000" class=""></path>
      <path d="M0 0h-16.195l-7.5 5-7.5-5h-10.37l-7.5 5-7.5-5h-10.36l-7.5 5-7.5-5h-74.793l-15.332 5h-103.142l-18.761-5h-74.792l-7.5 5-7.5-5h-10.36l-7.5 5-7.5-5h-10.37l-7.5 5-7.5-5h-16.195c-12.794 0-23.165 10.371-23.165 23.165v8.908c0 6.397 5.185 11.582 11.582 11.582h168.3l18.761-5h103.142l15.332 5h168.3c6.397 0 11.583-5.185 11.583-11.582v-8.908C23.165 10.371 12.794 0 0 0" style="fill-opacity:1;fill-rule:nonzero;stroke:none" transform="translate(481.335 66.833)" fill="#d9ecfd" data-original="#d9ecfd"></path>
      <path d="M0 0v-8.91c0-12.8-10.37-23.17-23.16-23.17h-35.9c12.8 0 23.17 10.37 23.17 23.17V0c0 6.39-5.19 11.58-11.58 11.58h35.89C-5.19 11.58 0 6.39 0 0" style="fill-opacity:1;fill-rule:nonzero;stroke:none" transform="translate(504.5 98.91)" fill="#b5dbfd" data-original="#b5dbfd"></path>
      <path d="M324.617 110.489H187.382V66.834h137.235z" style="fill-opacity:1;fill-rule:nonzero;stroke:none" fill="#8dcafc" data-original="#8dcafc"></path>
      <path d="M0 0v43.655" style="stroke-width:15;stroke-linecap:round;stroke-linejoin:round;stroke-miterlimit:10;stroke-dasharray:none;stroke-opacity:1" transform="translate(324.617 66.833)" fill="none" stroke="#000000" stroke-width="15" stroke-linecap="round" stroke-linejoin="round" stroke-miterlimit="10" stroke-dasharray="none" stroke-opacity="" data-original="#000000" class=""></path>
      <path d="M0 0v-43.655" style="stroke-width:15;stroke-linecap:round;stroke-linejoin:round;stroke-miterlimit:10;stroke-dasharray:none;stroke-opacity:1" transform="translate(187.383 110.489)" fill="none" stroke="#000000" stroke-width="15" stroke-linecap="round" stroke-linejoin="round" stroke-miterlimit="10" stroke-dasharray="none" stroke-opacity="" data-original="#000000" class=""></path>
      <path d="M0 0h-334.984c-6.397 0-11.583-5.186-11.583-11.582v-8.909c0-12.793 10.371-23.164 23.165-23.164h450.67c12.794 0 23.165 10.371 23.165 23.164v8.909C150.433-5.186 145.248 0 138.851 0H33.486" style="stroke-width:15;stroke-linecap:round;stroke-linejoin:round;stroke-miterlimit:10;stroke-dasharray:none;stroke-opacity:1" transform="translate(354.067 110.489)" fill="none" stroke="#000000" stroke-width="15" stroke-linecap="round" stroke-linejoin="round" stroke-miterlimit="10" stroke-dasharray="none" stroke-opacity="" data-original="#000000" class=""></path>
      <path d="M0 0v13.828" style="stroke-width:15;stroke-linecap:round;stroke-linejoin:round;stroke-miterlimit:10;stroke-dasharray:none;stroke-opacity:1" transform="translate(54.356 66.833)" fill="none" stroke="#000000" stroke-width="15" stroke-linecap="round" stroke-linejoin="round" stroke-miterlimit="10" stroke-dasharray="none" stroke-opacity="" data-original="#000000" class=""></path>
      <path d="M0 0v13.828" style="stroke-width:15;stroke-linecap:round;stroke-linejoin:round;stroke-miterlimit:10;stroke-dasharray:none;stroke-opacity:1" transform="translate(79.725 66.833)" fill="none" stroke="#000000" stroke-width="15" stroke-linecap="round" stroke-linejoin="round" stroke-miterlimit="10" stroke-dasharray="none" stroke-opacity="" data-original="#000000" class=""></path>
      <path d="M0 0v13.828" style="stroke-width:15;stroke-linecap:round;stroke-linejoin:round;stroke-miterlimit:10;stroke-dasharray:none;stroke-opacity:1" transform="translate(105.094 66.833)" fill="none" stroke="#000000" stroke-width="15" stroke-linecap="round" stroke-linejoin="round" stroke-miterlimit="10" stroke-dasharray="none" stroke-opacity="" data-original="#000000" class=""></path>
      <path d="M0 0v13.828" style="stroke-width:15;stroke-linecap:round;stroke-linejoin:round;stroke-miterlimit:10;stroke-dasharray:none;stroke-opacity:1" transform="translate(406.906 66.833)" fill="none" stroke="#000000" stroke-width="15" stroke-linecap="round" stroke-linejoin="round" stroke-miterlimit="10" stroke-dasharray="none" stroke-opacity="" data-original="#000000" class=""></path>
      <path d="M0 0v13.828" style="stroke-width:15;stroke-linecap:round;stroke-linejoin:round;stroke-miterlimit:10;stroke-dasharray:none;stroke-opacity:1" transform="translate(432.275 66.833)" fill="none" stroke="#000000" stroke-width="15" stroke-linecap="round" stroke-linejoin="round" stroke-miterlimit="10" stroke-dasharray="none" stroke-opacity="" data-original="#000000" class=""></path>
      <path d="M0 0v13.828" style="stroke-width:15;stroke-linecap:round;stroke-linejoin:round;stroke-miterlimit:10;stroke-dasharray:none;stroke-opacity:1" transform="translate(457.644 66.833)" fill="none" stroke="#000000" stroke-width="15" stroke-linecap="round" stroke-linejoin="round" stroke-miterlimit="10" stroke-dasharray="none" stroke-opacity="" data-original="#000000" class=""></path>
      <path d="M0 0v.103" style="stroke-width:15;stroke-linecap:round;stroke-linejoin:round;stroke-miterlimit:10;stroke-dasharray:none;stroke-opacity:1" transform="translate(256 361.534)" fill="none" stroke="#000000" stroke-width="15" stroke-linecap="round" stroke-linejoin="round" stroke-miterlimit="10" stroke-dasharray="none" stroke-opacity="" data-original="#000000" class=""></path>
      <path d="M0 0c2.542-.297 4.48-2.408 4.48-4.967V-94.71c0-35.414-24.464-128.017-113.491-141.947a5.159 5.159 0 0 0-1.598 0C-199.636-222.727-224.09-130.124-224.09-94.71v89.743c0 2.559 1.938 4.67 4.48 4.967 16.243 1.896 29.375 13.974 32.837 29.68a4.996 4.996 0 0 0 4.876 3.93h144.184a4.994 4.994 0 0 0 4.875-3.93C-29.375 13.974-16.243 1.896 0 0" style="fill-opacity:1;fill-rule:nonzero;stroke:none" transform="translate(365.805 411.56)" fill="#1c96f9" data-original="#1c96f9"></path>
      <path d="M0 0v-89.74c0-35.41-24.47-128.02-113.5-141.95-.52-.08-1.07-.08-1.59 0-4.93.77-9.66 1.78-14.21 3.02 77.46 20.99 99.29 105.48 99.29 138.93V0c0 2.56-1.93 4.67-4.47 4.97-16.25 1.9-29.38 13.97-32.84 29.68a5.006 5.006 0 0 1-4.88 3.93h30c2.35 0 4.37-1.64 4.88-3.93C-33.86 18.94-20.73 6.87-4.48 4.97-1.94 4.67 0 2.56 0 0" style="fill-opacity:1;fill-rule:nonzero;stroke:none" transform="translate(370.29 406.59)" fill="#1785f8" data-original="#1785f8"></path>
      <path d="M0 0c-27.699 5.398-49.573 21.467-65.066 47.812-15.199 25.845-19.215 53.049-19.215 63.822v71.384a68.327 68.327 0 0 1 28.96 26.937h110.65a68.321 68.321 0 0 1 28.96-26.937v-71.384c0-10.772-4.017-37.973-19.219-63.82C49.572 21.465 27.695 5.395 0 0" style="fill-opacity:1;fill-rule:nonzero;stroke:none" transform="translate(255.996 205.216)" fill="#fcb44d" data-original="#fcb44d"></path>
      <path d="M0 0v-71.38c0-10.77-4.01-37.97-19.21-63.82-15.5-26.35-37.38-42.42-65.07-47.81-5.21 1.02-10.21 2.41-15 4.18 20.69 7.62 37.48 22.23 50.07 43.63C-34.01-109.35-30-82.15-30-71.38V0a68.45 68.45 0 0 0-28.96 26.94h30A68.45 68.45 0 0 1 0 0" style="fill-opacity:1;fill-rule:nonzero;stroke:none" transform="translate(340.28 388.23)" fill="#fb9927" data-original="#fb9927"></path>
      <path d="M0 0c-27.699 5.398-49.573 21.467-65.066 47.812-15.199 25.845-19.215 53.049-19.215 63.822v71.384a68.327 68.327 0 0 1 28.96 26.937h110.65a68.321 68.321 0 0 1 28.96-26.937v-71.384c0-10.772-4.017-37.973-19.219-63.82C49.572 21.465 27.695 5.395 0 0Z" style="stroke-width:15;stroke-linecap:round;stroke-linejoin:round;stroke-miterlimit:10;stroke-dasharray:none;stroke-opacity:1" transform="translate(255.996 205.216)" fill="none" stroke="#000000" stroke-width="15" stroke-linecap="round" stroke-linejoin="round" stroke-miterlimit="10" stroke-dasharray="none" stroke-opacity="" data-original="#000000" class=""></path>
      <path d="M0 0c26.649 33.171 35.572 75.384 35.572 96.761v89.743c0 2.56-1.938 4.67-4.48 4.967-16.243 1.896-29.375 13.974-32.837 29.681a4.997 4.997 0 0 1-4.876 3.929h-144.184a4.997 4.997 0 0 1-4.876-3.929c-3.462-15.707-16.594-27.785-32.837-29.681-2.542-.297-4.48-2.407-4.48-4.967V96.761c0-35.414 24.454-128.016 113.481-141.947a5.221 5.221 0 0 1 1.598 0c21.511 3.366 39.242 11.333 53.78 21.968" style="stroke-width:15;stroke-linecap:round;stroke-linejoin:round;stroke-miterlimit:10;stroke-dasharray:none;stroke-opacity:1" transform="translate(334.713 220.089)" fill="none" stroke="#000000" stroke-width="15" stroke-linecap="round" stroke-linejoin="round" stroke-miterlimit="10" stroke-dasharray="none" stroke-opacity="" data-original="#000000" class=""></path>
      <path d="M0 0c0-11.331-9.186-20.517-20.517-20.517S-41.033-11.331-41.033 0s9.185 20.517 20.516 20.517C-9.186 20.517 0 11.331 0 0Z" style="stroke-width:15;stroke-linecap:round;stroke-linejoin:round;stroke-miterlimit:10;stroke-dasharray:none;stroke-opacity:1" transform="translate(276.517 352.837)" fill="none" stroke="#000000" stroke-width="15" stroke-linecap="round" stroke-linejoin="round" stroke-miterlimit="10" stroke-dasharray="none" stroke-opacity="" data-original="#000000" class=""></path>
      <path d="M0 0v-61.653h15.025" style="stroke-width:15;stroke-linecap:round;stroke-linejoin:round;stroke-miterlimit:10;stroke-dasharray:none;stroke-opacity:1" transform="translate(256 332.32)" fill="none" stroke="#000000" stroke-width="15" stroke-linecap="round" stroke-linejoin="round" stroke-miterlimit="10" stroke-dasharray="none" stroke-opacity="" data-original="#000000" class=""></path>
      <path d="M0 0h15.025" style="stroke-width:15;stroke-linecap:round;stroke-linejoin:round;stroke-miterlimit:10;stroke-dasharray:none;stroke-opacity:1" transform="translate(256 293.333)" fill="none" stroke="#000000" stroke-width="15" stroke-linecap="round" stroke-linejoin="round" stroke-miterlimit="10" stroke-dasharray="none" stroke-opacity="" data-original="#000000" class=""></path>
      <path d="M0 0c0-28.03-22.723-50.753-50.753-50.753S-101.506-28.03-101.506 0s22.723 50.753 50.753 50.753S0 28.03 0 0" style="fill-opacity:1;fill-rule:nonzero;stroke:none" transform="translate(432.27 376.158)" fill="#a3e440" data-original="#a3e440"></path>
      <path d="M0 0c0-28.031-22.732-50.752-50.763-50.752a50.73 50.73 0 0 0-13.23 1.744C-42.377-43.189-26.471-23.458-26.471 0c0 23.458-15.906 43.189-37.522 49.008a50.73 50.73 0 0 0 13.23 1.744C-22.732 50.752 0 28.031 0 0" style="fill-opacity:1;fill-rule:nonzero;stroke:none" transform="translate(432.275 376.157)" fill="#99d53b" data-original="#99d53b"></path>
      <path d="M0 0c0-28.03-22.723-50.753-50.753-50.753S-101.506-28.03-101.506 0s22.723 50.753 50.753 50.753S0 28.03 0 0Z" style="stroke-width:15;stroke-linecap:round;stroke-linejoin:round;stroke-miterlimit:10;stroke-dasharray:none;stroke-opacity:1" transform="translate(432.27 376.158)" fill="none" stroke="#000000" stroke-width="15" stroke-linecap="round" stroke-linejoin="round" stroke-miterlimit="10" stroke-dasharray="none" stroke-opacity="" data-original="#000000" class=""></path>
      <path d="m0 0 10.275-10.275 21.326 21.326" style="stroke-width:15;stroke-linecap:round;stroke-linejoin:round;stroke-miterlimit:10;stroke-dasharray:none;stroke-opacity:1" transform="translate(365.716 376.158)" fill="none" stroke="#000000" stroke-width="15" stroke-linecap="round" stroke-linejoin="round" stroke-miterlimit="10" stroke-dasharray="none" stroke-opacity="" data-original="#000000" class=""></path>
      <path d="M0 0h37.544" style="stroke-width:15;stroke-linecap:round;stroke-linejoin:round;stroke-miterlimit:10;stroke-dasharray:none;stroke-opacity:1" transform="translate(77.898 202.95)" fill="none" stroke="#000000" stroke-width="15" stroke-linecap="round" stroke-linejoin="round" stroke-miterlimit="10" stroke-dasharray="none" stroke-opacity="" data-original="#000000" class=""></path>
      <path d="M0 0h57.654" style="stroke-width:15;stroke-linecap:round;stroke-linejoin:round;stroke-miterlimit:10;stroke-dasharray:none;stroke-opacity:1" transform="translate(77.898 178.35)" fill="none" stroke="#000000" stroke-width="15" stroke-linecap="round" stroke-linejoin="round" stroke-miterlimit="10" stroke-dasharray="none" stroke-opacity="" data-original="#000000" class=""></path>
      <path d="M0 0v13.718M0 0l-8.063-11.098M0 0l8.063-11.098M0 0l-13.047 4.239M0 0l13.047 4.239" style="stroke-width:15;stroke-linecap:round;stroke-linejoin:round;stroke-miterlimit:10;stroke-dasharray:none;stroke-opacity:1" transform="translate(90.945 251.809)" fill="none" stroke="#000000" stroke-width="15" stroke-linecap="round" stroke-linejoin="round" stroke-miterlimit="10" stroke-dasharray="none" stroke-opacity="" data-original="#000000" class=""></path>
    </g>
  </g>
</svg>
